<svg width="653" height="85" viewBox="0 0 653 85" fill="none" xmlns="http://www.w3.org/2000/svg">
<path d="M609.516 5.8125C613.953 5.8125 617.938 6.6875 621.469 8.4375C625 10.1875 627.766 12.625 629.766 15.75C631.766 18.8438 632.766 22.375 632.766 26.3438C632.766 30.3125 631.766 33.8594 629.766 36.9844C627.766 40.0781 625 42.5 621.469 44.25C617.969 46 613.984 46.875 609.516 46.875C605.141 46.875 601.172 46 597.609 44.25C594.047 42.5 591.25 40.0781 589.219 36.9844C587.219 33.8594 586.219 30.3125 586.219 26.3438C586.219 22.375 587.219 18.8438 589.219 15.75C591.25 12.625 594.047 10.1875 597.609 8.4375C601.172 6.6875 605.141 5.8125 609.516 5.8125ZM609.516 14.8594C607.047 14.8594 604.828 15.3281 602.859 16.2656C600.891 17.2031 599.344 18.5469 598.219 20.2969C597.094 22.0156 596.531 24.0312 596.531 26.3438C596.531 28.6562 597.094 30.6719 598.219 32.3906C599.344 34.1094 600.891 35.4531 602.859 36.4219C604.828 37.3594 607.047 37.8281 609.516 37.8281C612.047 37.8281 614.297 37.3594 616.266 36.4219C618.234 35.4531 619.766 34.1094 620.859 32.3906C621.984 30.6719 622.547 28.6562 622.547 26.3438C622.547 24.0312 621.984 22.0156 620.859 20.2969C619.766 18.5469 618.234 17.2031 616.266 16.2656C614.297 15.3281 612.047 14.8594 609.516 14.8594ZM652.547 84.8906H642.234V0H652.547V84.8906ZM583.688 58.5938C593.969 58.5625 603.469 58.3594 612.188 57.9844C620.938 57.6094 629.25 56.875 637.125 55.7812L637.922 63.375C632.078 64.4375 626.016 65.25 619.734 65.8125C613.453 66.375 607.547 66.7344 602.016 66.8906C596.516 67.0469 590.406 67.125 583.688 67.125L582.375 58.5938H583.688Z" fill="#222222"/>
<path d="M540.891 11.5781C540.891 17.6094 539.375 23.2656 536.344 28.5469C533.344 33.8281 529.188 38.3125 523.875 42C518.594 45.6875 512.609 48.2344 505.922 49.6406L501.422 40.9688C507.141 39.875 512.312 37.8438 516.938 34.875C521.594 31.9062 525.219 28.375 527.812 24.2812C530.438 20.1875 531.75 15.9531 531.75 11.5781V5.39062H540.891V11.5781ZM542.766 11.5781C542.766 15.9531 544.078 20.2031 546.703 24.3281C549.359 28.4219 553.016 31.9688 557.672 34.9688C562.359 37.9375 567.578 39.9375 573.328 40.9688L568.688 49.6406C562.062 48.2344 556.109 45.7031 550.828 42.0469C545.547 38.3906 541.391 33.9375 538.359 28.6875C535.359 23.4062 533.859 17.7031 533.859 11.5781V5.39062H542.766V11.5781ZM576.516 73.9219H499.078V65.3438H576.516V73.9219Z" fill="#222222"/>
<path d="M426.938 55.6406C435.094 55.6406 441.906 55.4688 447.375 55.125C452.844 54.75 458.312 54.0625 463.781 53.0625L464.906 61.5C459.25 62.5938 453.609 63.3438 447.984 63.75C442.391 64.125 435.375 64.2969 426.938 64.2656H420.188V55.6406H426.938ZM458.859 16.2188H430.641V58.875H420.188V7.6875H458.859V16.2188ZM487.172 84.8906H476.766V0H487.172V84.8906ZM481.172 38.3438H454.406V29.8125H481.172V38.3438Z" fill="#222222"/>
<path d="M399.469 84.8906H389.156V0H399.469V84.8906ZM412.547 41.25H397.125V32.5781H412.547V41.25ZM343.641 56.2031C351.828 56.2344 358.859 56.0625 364.734 55.6875C370.641 55.3125 376.609 54.5938 382.641 53.5312L383.578 61.9219C377.422 63.0156 371.281 63.7812 365.156 64.2188C359.062 64.6562 351.891 64.8906 343.641 64.9219H336.609V56.2031H343.641ZM375.422 39.3281H346.969V59.5781H336.609V31.0312H365.016V15.8438H336.516V7.35938H375.422V39.3281Z" fill="#222222"/>
<path d="M327.609 74.1562H250.172V65.5781H327.609V74.1562ZM269.109 20.25H308.344V5.67188H318.703V50.4844H258.656V5.67188H269.109V20.25ZM308.344 42.2812V28.4531H269.109V42.2812H308.344Z" fill="#222222"/>
<path d="M244.641 74.1562H167.203V65.5781H244.641V74.1562ZM186.141 20.25H225.375V5.67188H235.734V50.4844H175.688V5.67188H186.141V20.25ZM225.375 42.2812V28.4531H186.141V42.2812H225.375Z" fill="#222222"/>
<path d="M127.875 67.6875H117.609V47.625H127.875V67.6875ZM122.812 4.73438C128.812 4.73438 134.203 5.6875 138.984 7.59375C143.797 9.5 147.562 12.1875 150.281 15.6562C153 19.125 154.359 23.1094 154.359 27.6094C154.359 32.2344 153 36.2812 150.281 39.75C147.562 43.2188 143.812 45.9062 139.031 47.8125C134.25 49.6875 128.844 50.625 122.812 50.625C116.781 50.625 111.359 49.6875 106.547 47.8125C101.766 45.9062 98.0156 43.2188 95.2969 39.75C92.6094 36.2812 91.2656 32.2344 91.2656 27.6094C91.2656 23.1094 92.6094 19.125 95.2969 15.6562C98.0156 12.1875 101.766 9.5 106.547 7.59375C111.359 5.6875 116.781 4.73438 122.812 4.73438ZM122.812 13.125C118.688 13.125 115 13.7188 111.75 14.9062C108.5 16.0938 105.969 17.7812 104.156 19.9688C102.375 22.1562 101.484 24.7031 101.484 27.6094C101.484 30.6094 102.375 33.2188 104.156 35.4375C105.969 37.6562 108.484 39.3594 111.703 40.5469C114.922 41.7031 118.625 42.2969 122.812 42.3281C127 42.2969 130.688 41.7031 133.875 40.5469C137.094 39.3594 139.594 37.6562 141.375 35.4375C143.188 33.2188 144.094 30.6094 144.094 27.6094C144.094 24.7031 143.188 22.1562 141.375 19.9688C139.594 17.7812 137.094 16.0938 133.875 14.9062C130.656 13.7188 126.969 13.125 122.812 13.125ZM161.672 74.4844H84.2344V65.9062H161.672V74.4844Z" fill="#222222"/>
<path d="M29.3906 14.0156C29.3906 19.2031 28.4688 24.0312 26.625 28.5C24.7812 32.9375 22.0469 36.7969 18.4219 40.0781C14.8281 43.3594 10.4531 45.8125 5.29688 47.4375L0 39.1875C4.46875 37.7812 8.26562 35.7969 11.3906 33.2344C14.5156 30.6719 16.8906 27.7344 18.5156 24.4219C20.1406 21.1094 20.9531 17.6406 20.9531 14.0156V7.82812H29.3906V14.0156ZM31.5 13.9219C31.5 17.2969 32.25 20.5469 33.75 23.6719C35.2812 26.7969 37.5625 29.5781 40.5938 32.0156C43.6562 34.4531 47.3438 36.3281 51.6562 37.6406L46.6875 45.6562C41.625 44.125 37.2969 41.7812 33.7031 38.625C30.1406 35.4688 27.4375 31.7812 25.5938 27.5625C23.7812 23.3125 22.875 18.7656 22.875 13.9219V7.82812H31.5V13.9219ZM48.9844 13.4531H3.04688V5.0625H48.9844V13.4531ZM68.0625 46.5469H57.6562V0H68.0625V46.5469ZM79.9219 27.1406H65.1094V18.6094H79.9219V27.1406ZM23.4844 58.8281H57.6562V50.2031H68.0625V83.6719H13.125V50.2031H23.4844V58.8281ZM57.6562 75.2812V66.8906H23.4844V75.2812H57.6562Z" fill="#222222"/>
</svg>
