<svg width="1166" height="87" viewBox="0 0 1166 87" fill="none" xmlns="http://www.w3.org/2000/svg">
<path d="M1158.05 78.1875C1156.64 78.1875 1155.33 77.8281 1154.11 77.1094C1152.89 76.3594 1151.94 75.3906 1151.25 74.2031C1150.56 72.9844 1150.22 71.6719 1150.22 70.2656C1150.22 68.8906 1150.56 67.6094 1151.25 66.4219C1151.94 65.2031 1152.89 64.25 1154.11 63.5625C1155.33 62.875 1156.64 62.5312 1158.05 62.5312C1159.45 62.5312 1160.75 62.875 1161.94 63.5625C1163.16 64.25 1164.12 65.2031 1164.84 66.4219C1165.56 67.6094 1165.92 68.8906 1165.92 70.2656C1165.92 71.6719 1165.56 72.9844 1164.84 74.2031C1164.12 75.3906 1163.16 76.3594 1161.94 77.1094C1160.75 77.8281 1159.45 78.1875 1158.05 78.1875Z" fill="#EFEFEF"/>
<path d="M1093.36 68.0156H1081.5V44.0625H1093.36V68.0156ZM1124.77 68.0156H1112.72V44.0625H1124.77V68.0156ZM1142.11 75.9844H1064.11V66.1875H1142.11V75.9844ZM1102.97 4.78125C1109.12 4.78125 1114.62 5.73438 1119.47 7.64062C1124.34 9.54688 1128.16 12.2344 1130.91 15.7031C1133.69 19.1719 1135.08 23.1562 1135.08 27.6562C1135.08 32.1875 1133.7 36.1875 1130.95 39.6562C1128.2 43.0938 1124.39 45.7656 1119.52 47.6719C1114.67 49.5469 1109.16 50.5 1102.97 50.5312C1096.81 50.5 1091.3 49.5469 1086.42 47.6719C1081.58 45.7656 1077.78 43.0938 1075.03 39.6562C1072.28 36.1875 1070.91 32.1875 1070.91 27.6562C1070.91 23.1562 1072.28 19.1719 1075.03 15.7031C1077.78 12.2344 1081.59 9.54688 1086.47 7.64062C1091.34 5.73438 1096.84 4.78125 1102.97 4.78125ZM1102.97 14.25C1098.91 14.2188 1095.36 14.7344 1092.33 15.7969C1089.3 16.8594 1086.94 18.4062 1085.25 20.4375C1083.56 22.4375 1082.72 24.8438 1082.72 27.6562C1082.72 30.4375 1083.56 32.8594 1085.25 34.9219C1086.94 36.9531 1089.3 38.5312 1092.33 39.6562C1095.39 40.75 1098.94 41.2969 1102.97 41.2969C1106.97 41.2969 1110.5 40.75 1113.56 39.6562C1116.62 38.5312 1119 36.9531 1120.69 34.9219C1122.41 32.8594 1123.27 30.4375 1123.27 27.6562C1123.27 24.8438 1122.42 22.4375 1120.73 20.4375C1119.05 18.4375 1116.67 16.9062 1113.61 15.8438C1110.58 14.75 1107.03 14.2188 1102.97 14.25Z" fill="#EFEFEF"/>
<path d="M1029.52 39.2344H1014.98V29.4375H1029.52V39.2344ZM1006.03 22.6875C1006.03 29.3438 1005.34 35.6719 1003.97 41.6719C1002.62 47.6719 1000.52 53.0312 997.641 57.75C994.797 62.4688 991.188 66.1719 986.812 68.8594L979.5 59.9531C983.531 57.4531 986.844 54.2344 989.438 50.2969C992.031 46.3281 993.906 42.0156 995.062 37.3594C996.25 32.7031 996.844 27.8125 996.844 22.6875V7.96875H1006.03V22.6875ZM1008.42 22.125C1008.42 27.1562 1008.92 31.875 1009.92 36.2812C1010.92 40.6562 1012.58 44.7188 1014.89 48.4688C1017.23 52.2188 1020.25 55.2969 1023.94 57.7031L1017.47 66.8906C1013.12 64.2656 1009.62 60.6406 1006.97 56.0156C1004.31 51.3906 1002.39 46.25 1001.2 40.5938C1000.05 34.9375 999.469 28.7812 999.469 22.125V7.96875H1008.42V22.125ZM1055.06 85.9688H1043.58V0.5625H1055.06V85.9688ZM1037.2 82.0312H1026V1.875H1037.2V82.0312Z" fill="#EFEFEF"/>
<path d="M965.438 85.9688H953.625V0.5625H965.438V85.9688ZM978.094 43.875H962.812V34.0781H978.094V43.875ZM947.812 22.9688H897.703V13.3594H947.812V22.9688ZM922.969 27.7031C927.125 27.7031 930.859 28.5781 934.172 30.3281C937.484 32.0469 940.078 34.4531 941.953 37.5469C943.859 40.6406 944.812 44.1406 944.812 48.0469C944.812 51.9531 943.859 55.4531 941.953 58.5469C940.078 61.6406 937.484 64.0625 934.172 65.8125C930.859 67.5312 927.125 68.3906 922.969 68.3906C918.812 68.3906 915.078 67.5312 911.766 65.8125C908.453 64.0625 905.859 61.6406 903.984 58.5469C902.109 55.4531 901.172 51.9531 901.172 48.0469C901.172 44.1406 902.109 40.6406 903.984 37.5469C905.859 34.4531 908.453 32.0469 911.766 30.3281C915.078 28.5781 918.812 27.7031 922.969 27.7031ZM922.969 37.4531C921 37.4531 919.219 37.8906 917.625 38.7656C916.062 39.6094 914.828 40.8438 913.922 42.4688C913.047 44.0625 912.609 45.9219 912.609 48.0469C912.609 50.2031 913.047 52.0781 913.922 53.6719C914.828 55.2656 916.062 56.5 917.625 57.375C919.219 58.2188 921 58.6406 922.969 58.6406C925 58.6406 926.797 58.2188 928.359 57.375C929.922 56.5 931.125 55.2656 931.969 53.6719C932.844 52.0781 933.281 50.2031 933.281 48.0469C933.281 45.9219 932.844 44.0625 931.969 42.4688C931.125 40.8438 929.922 39.6094 928.359 38.7656C926.797 37.8906 925 37.4531 922.969 37.4531ZM928.922 17.0156H917.016V1.92188H928.922V17.0156Z" fill="#EFEFEF"/>
<path d="M886.547 62.0625H874.594V0.75H886.547V62.0625ZM888.891 84.5156H829.406V74.8594H888.891V84.5156ZM841.5 78.7969H829.406V55.9219H841.5V78.7969ZM839.812 6.14062C844.156 6.14062 848.109 7.0625 851.672 8.90625C855.266 10.7188 858.078 13.2812 860.109 16.5938C862.141 19.875 863.156 23.5469 863.156 27.6094C863.156 31.7969 862.141 35.5312 860.109 38.8125C858.078 42.0938 855.266 44.6719 851.672 46.5469C848.109 48.3906 844.156 49.3125 839.812 49.3125C835.469 49.3125 831.516 48.3906 827.953 46.5469C824.422 44.6719 821.625 42.0938 819.562 38.8125C817.5 35.5312 816.469 31.7969 816.469 27.6094C816.469 23.5469 817.5 19.875 819.562 16.5938C821.625 13.2812 824.422 10.7188 827.953 8.90625C831.516 7.0625 835.469 6.14062 839.812 6.14062ZM839.812 16.5469C837.594 16.5156 835.594 16.9531 833.812 17.8594C832.062 18.7344 830.672 20.0156 829.641 21.7031C828.641 23.3906 828.141 25.3594 828.141 27.6094C828.141 29.9219 828.641 31.9375 829.641 33.6562C830.672 35.3438 832.062 36.6406 833.812 37.5469C835.594 38.4219 837.594 38.8594 839.812 38.8594C842 38.8594 843.953 38.4219 845.672 37.5469C847.422 36.6406 848.797 35.3438 849.797 33.6562C850.797 31.9375 851.297 29.9219 851.297 27.6094C851.297 25.3594 850.797 23.3906 849.797 21.7031C848.797 20.0156 847.422 18.7344 845.672 17.8594C843.953 16.9531 842 16.5156 839.812 16.5469Z" fill="#EFEFEF"/>
<path d="M763.875 51.8906H751.969V39.7031H763.875V51.8906ZM800.438 58.7344H788.391V0.75H800.438V58.7344ZM811.359 34.9688H796.172V25.1719H811.359V34.9688ZM732.656 47.7656C742.188 47.7656 751.297 47.6094 759.984 47.2969C768.703 46.9531 776.859 46.3125 784.453 45.375L785.344 53.625C777.406 55 769.234 55.9062 760.828 56.3438C752.453 56.75 743 56.9688 732.469 57L731.297 47.7656H732.656ZM800.438 85.9688H788.391V71.3438H742.078V62.1094H800.438V85.9688ZM782.297 15.6562H733.453V6.98438H782.297V15.6562ZM757.875 17.625C762.062 17.625 765.719 18.1406 768.844 19.1719C772 20.1719 774.438 21.625 776.156 23.5312C777.906 25.4375 778.781 27.7031 778.781 30.3281C778.781 32.8906 777.906 35.1406 776.156 37.0781C774.438 39.0156 772 40.5156 768.844 41.5781C765.719 42.6094 762.062 43.125 757.875 43.125C753.719 43.125 750.047 42.6094 746.859 41.5781C743.703 40.5156 741.25 39.0156 739.5 37.0781C737.781 35.1406 736.922 32.8906 736.922 30.3281C736.922 27.7031 737.781 25.4375 739.5 23.5312C741.25 21.625 743.703 20.1719 746.859 19.1719C750.047 18.1406 753.719 17.625 757.875 17.625ZM757.875 25.5938C755.812 25.5625 754.078 25.7188 752.672 26.0625C751.297 26.4062 750.234 26.9219 749.484 27.6094C748.734 28.2969 748.359 29.2031 748.359 30.3281C748.359 31.3594 748.734 32.25 749.484 33C750.234 33.7188 751.312 34.2656 752.719 34.6406C754.125 35.0156 755.844 35.2031 757.875 35.2031C759.906 35.2031 761.609 35.0156 762.984 34.6406C764.391 34.2656 765.453 33.7188 766.172 33C766.922 32.25 767.297 31.3594 767.297 30.3281C767.297 29.2031 766.922 28.2969 766.172 27.6094C765.453 26.9219 764.406 26.4062 763.031 26.0625C761.656 25.7188 759.938 25.5625 757.875 25.5938ZM763.875 11.0625H751.969V0H763.875V11.0625Z" fill="#EFEFEF"/>
<path d="M690.047 29.5312H673.453V19.7344H690.047V29.5312ZM698.859 47.2969H687V0.5625H698.859V47.2969ZM653.859 58.7344H687V50.6719H698.859V85.0312H642V50.6719H653.859V58.7344ZM687 75.4219V67.9219H653.859V75.4219H687ZM656.766 12.7969C656.766 18.2656 655.875 23.4062 654.094 28.2188C652.312 33 649.609 37.2031 645.984 40.8281C642.391 44.4219 637.969 47.0781 632.719 48.7969L626.531 39.4219C631.031 37.8906 634.812 35.75 637.875 33C640.969 30.2188 643.266 27.1094 644.766 23.6719C646.266 20.2031 647.016 16.5781 647.016 12.7969V7.21875H656.766V12.7969ZM659.203 12.8906C659.203 16.3281 659.922 19.6719 661.359 22.9219C662.797 26.1719 664.969 29.125 667.875 31.7812C670.812 34.4062 674.469 36.4375 678.844 37.875L672.938 47.1094C667.781 45.3594 663.438 42.7812 659.906 39.375C656.406 35.9688 653.797 32 652.078 27.4688C650.359 22.9375 649.5 18.0781 649.5 12.8906V7.21875H659.203V12.8906ZM676.219 14.25H629.906V4.54688H676.219V14.25Z" fill="#EFEFEF"/>
<path d="M575.109 15C575.109 20.4062 574.172 25.4844 572.297 30.2344C570.453 34.9844 567.688 39.1406 564 42.7031C560.344 46.2656 555.875 48.9219 550.594 50.6719L544.406 41.4375C548.938 39.9375 552.766 37.8125 555.891 35.0625C559.016 32.2812 561.328 29.1719 562.828 25.7344C564.359 22.2656 565.125 18.6875 565.125 15V9.375H575.109V15ZM577.266 15C577.266 18.5 578 21.875 579.469 25.125C580.938 28.375 583.203 31.2969 586.266 33.8906C589.359 36.4844 593.141 38.4844 597.609 39.8906L591.562 49.125C586.375 47.5 581.969 44.9844 578.344 41.5781C574.75 38.1406 572.047 34.1562 570.234 29.625C568.422 25.0625 567.516 20.1875 567.516 15V9.375H577.266V15ZM615.422 52.0781H603.469V0.5625H615.422V52.0781ZM615.422 85.9688H603.469V65.3438H556.828V55.7812H615.422V85.9688ZM594.469 15.1875H547.547V5.625H594.469V15.1875Z" fill="#EFEFEF"/>
<path d="M516.797 47.7656H438.797V38.8594H516.797V47.7656ZM507.516 72.1406H459.656V79.6406H447.703V64.5938H495.656V60.3281H447.656V51.9844H507.516V72.1406ZM509.953 85.1719H447.703V77.0156H509.953V85.1719ZM507.375 22.2188H460.406V29.3438H448.5V14.625H495.375V10.3125H448.359V2.15625H507.375V22.2188ZM508.828 34.875H448.5V26.8125H508.828V34.875Z" fill="#EFEFEF"/>
<path d="M425.438 54.1875H365.062V44.7656H425.438V54.1875ZM433.922 76.0312H355.922V66.3281H433.922V76.0312ZM424.781 16.6406H377.25V47.2969H365.062V6.89062H424.781V16.6406ZM422.766 34.9688H373.688V25.6406H422.766V34.9688Z" fill="#EFEFEF"/>
<path d="M344.344 86.2031H332.203V0.5625H344.344V86.2031ZM297.984 6.60938C302.266 6.60938 306.109 7.85938 309.516 10.3594C312.953 12.8594 315.625 16.4062 317.531 21C319.469 25.5938 320.438 30.9375 320.438 37.0312C320.438 43.1562 319.469 48.5156 317.531 53.1094C315.625 57.7031 312.953 61.25 309.516 63.75C306.109 66.2188 302.266 67.4531 297.984 67.4531C293.641 67.4531 289.75 66.2188 286.312 63.75C282.906 61.25 280.234 57.7031 278.297 53.1094C276.359 48.5156 275.391 43.1562 275.391 37.0312C275.391 30.9375 276.359 25.5938 278.297 21C280.234 16.4062 282.906 12.8594 286.312 10.3594C289.75 7.85938 293.641 6.60938 297.984 6.60938ZM297.984 17.4375C295.797 17.4062 293.859 18.1562 292.172 19.6875C290.516 21.1875 289.234 23.4219 288.328 26.3906C287.453 29.3281 287.016 32.875 287.016 37.0312C287.016 41.1875 287.453 44.7344 288.328 47.6719C289.234 50.6094 290.516 52.8438 292.172 54.375C293.859 55.875 295.797 56.625 297.984 56.625C300.141 56.625 302.047 55.875 303.703 54.375C305.359 52.8438 306.641 50.6094 307.547 47.6719C308.453 44.7344 308.906 41.1875 308.906 37.0312C308.906 32.875 308.453 29.3281 307.547 26.3906C306.641 23.4219 305.359 21.1875 303.703 19.6875C302.078 18.1562 300.172 17.4062 297.984 17.4375Z" fill="#EFEFEF"/>
<path d="M219.094 19.9219C219.094 27.1406 218.219 33.9375 216.469 40.3125C214.719 46.6875 212.078 52.3281 208.547 57.2344C205.016 62.1406 200.641 65.875 195.422 68.4375L188.062 58.7344C192.781 56.5781 196.719 53.4844 199.875 49.4531C203.062 45.3906 205.438 40.8281 207 35.7656C208.594 30.7031 209.391 25.4219 209.391 19.9219V7.17188H219.094V19.9219ZM221.297 19.9219C221.297 25.2344 222.047 30.3125 223.547 35.1562C225.047 40 227.312 44.3594 230.344 48.2344C233.406 52.1094 237.125 55.125 241.5 57.2812L234.281 66.7969C229.281 64.2656 225.094 60.6406 221.719 55.9219C218.344 51.2031 215.844 45.7812 214.219 39.6562C212.594 33.5312 211.781 26.9531 211.781 19.9219V7.17188H221.297V19.9219ZM257.25 85.9688H245.25V0.5625H257.25V85.9688ZM269.906 43.6875H254.625V33.5156H269.906V43.6875Z" fill="#EFEFEF"/>
<path d="M113.953 14.9062C113.953 20.3438 113.047 25.4531 111.234 30.2344C109.453 34.9844 106.75 39.125 103.125 42.6562C99.5312 46.1562 95.0938 48.7969 89.8125 50.5781L83.5312 41.3438C88.0625 39.8438 91.875 37.7188 94.9688 34.9688C98.0625 32.1875 100.359 29.0781 101.859 25.6406C103.391 22.1719 104.156 18.5938 104.156 14.9062V9.375H113.953V14.9062ZM116.25 15C116.25 18.4688 116.953 21.8281 118.359 25.0781C119.797 28.2969 122 31.2031 124.969 33.7969C127.938 36.3906 131.641 38.4219 136.078 39.8906L130.078 49.125C124.891 47.4375 120.531 44.8906 117 41.4844C113.5 38.0469 110.875 34.0781 109.125 29.5781C107.375 25.0469 106.5 20.1875 106.5 15V9.375H116.25V15ZM133.266 15.1875H86.7656V5.625H133.266V15.1875ZM152.438 52.125H140.484V0.5625H152.438V52.125ZM163.969 31.2656H149.062V21.3281H163.969V31.2656ZM152.438 85.9688H140.484V65.2969H95.0156V55.7812H152.438V85.9688Z" fill="#EFEFEF"/>
<path d="M75.5156 85.9688H64.2656V0.5625H75.5156V85.9688ZM50.0156 39.5625H35.625V29.9531H50.0156V39.5625ZM58.0781 82.0781H46.875V2.0625H58.0781V82.0781ZM26.2969 23.4844C26.2969 30.1719 25.6094 36.5156 24.2344 42.5156C22.8906 48.4844 20.8125 53.875 18 58.6875C15.1875 63.4688 11.5938 67.2031 7.21875 69.8906L0 61.0781C4.03125 58.5781 7.32812 55.3438 9.89062 51.375C12.4844 47.375 14.3594 43.0156 15.5156 38.2969C16.6719 33.5781 17.25 28.6406 17.25 23.4844V14.5312H26.2969V23.4844ZM28.7812 23.4844C28.7812 28.5156 29.3281 33.2969 30.4219 37.8281C31.5469 42.3281 33.375 46.4375 35.9062 50.1562C38.4375 53.8438 41.6875 56.8438 45.6562 59.1562L38.6719 67.9219C34.3281 65.3594 30.7656 61.8125 27.9844 57.2812C25.2031 52.75 23.1719 47.625 21.8906 41.9062C20.6094 36.1875 19.9688 30.0469 19.9688 23.4844V14.5312H28.7812V23.4844ZM41.7188 18.8906H3.23438V9.32812H41.7188V18.8906Z" fill="#EFEFEF"/>
</svg>
